%TF.GenerationSoftware,KiCad,Pcbnew,10.0.1*%
%TF.CreationDate,2026-05-19T23:53:25+02:00*%
%TF.ProjectId,tuss4470-breakout,74757373-3434-4373-902d-627265616b6f,rev?*%
%TF.SameCoordinates,Original*%
%TF.FileFunction,Paste,Top*%
%TF.FilePolarity,Positive*%
%FSLAX46Y46*%
G04 Gerber Fmt 4.6, Leading zero omitted, Abs format (unit mm)*
G04 Created by KiCad (PCBNEW 10.0.1) date 2026-05-19 23:53:25*
%MOMM*%
%LPD*%
G01*
G04 APERTURE LIST*
G04 Aperture macros list*
%AMRoundRect*
0 Rectangle with rounded corners*
0 $1 Rounding radius*
0 $2 $3 $4 $5 $6 $7 $8 $9 X,Y pos of 4 corners*
0 Add a 4 corners polygon primitive as box body*
4,1,4,$2,$3,$4,$5,$6,$7,$8,$9,$2,$3,0*
0 Add four circle primitives for the rounded corners*
1,1,$1+$1,$2,$3*
1,1,$1+$1,$4,$5*
1,1,$1+$1,$6,$7*
1,1,$1+$1,$8,$9*
0 Add four rect primitives between the rounded corners*
20,1,$1+$1,$2,$3,$4,$5,0*
20,1,$1+$1,$4,$5,$6,$7,0*
20,1,$1+$1,$6,$7,$8,$9,0*
20,1,$1+$1,$8,$9,$2,$3,0*%
G04 Aperture macros list end*
%ADD10RoundRect,0.225000X0.225000X0.375000X-0.225000X0.375000X-0.225000X-0.375000X0.225000X-0.375000X0*%
%ADD11RoundRect,0.062500X0.350000X-0.062500X0.350000X0.062500X-0.350000X0.062500X-0.350000X-0.062500X0*%
%ADD12RoundRect,0.062500X0.062500X-0.350000X0.062500X0.350000X-0.062500X0.350000X-0.062500X-0.350000X0*%
%ADD13RoundRect,0.250000X0.295000X-0.295000X0.295000X0.295000X-0.295000X0.295000X-0.295000X-0.295000X0*%
%ADD14RoundRect,0.150000X0.150000X-0.512500X0.150000X0.512500X-0.150000X0.512500X-0.150000X-0.512500X0*%
%ADD15RoundRect,0.200000X0.275000X-0.200000X0.275000X0.200000X-0.275000X0.200000X-0.275000X-0.200000X0*%
%ADD16RoundRect,0.200000X-0.275000X0.200000X-0.275000X-0.200000X0.275000X-0.200000X0.275000X0.200000X0*%
%ADD17RoundRect,0.225000X-0.225000X-0.250000X0.225000X-0.250000X0.225000X0.250000X-0.225000X0.250000X0*%
%ADD18RoundRect,0.225000X0.225000X0.250000X-0.225000X0.250000X-0.225000X-0.250000X0.225000X-0.250000X0*%
%ADD19RoundRect,0.225000X0.250000X-0.225000X0.250000X0.225000X-0.250000X0.225000X-0.250000X-0.225000X0*%
%ADD20RoundRect,0.225000X-0.250000X0.225000X-0.250000X-0.225000X0.250000X-0.225000X0.250000X0.225000X0*%
%ADD21RoundRect,0.250000X0.262500X0.450000X-0.262500X0.450000X-0.262500X-0.450000X0.262500X-0.450000X0*%
G04 APERTURE END LIST*
D10*
%TO.C,D1*%
X83058000Y-55499000D03*
X79758000Y-55499000D03*
%TD*%
D11*
%TO.C,U2*%
X85540500Y-49641000D03*
X85540500Y-49141000D03*
X85540500Y-48641000D03*
X85540500Y-48141000D03*
X85540500Y-47641000D03*
D12*
X86503000Y-46678500D03*
X87003000Y-46678500D03*
X87503000Y-46678500D03*
X88003000Y-46678500D03*
X88503000Y-46678500D03*
D11*
X89465500Y-47641000D03*
X89465500Y-48141000D03*
X89465500Y-48641000D03*
X89465500Y-49141000D03*
X89465500Y-49641000D03*
D12*
X88503000Y-50603500D03*
X88003000Y-50603500D03*
X87503000Y-50603500D03*
X87003000Y-50603500D03*
X86503000Y-50603500D03*
D13*
X88178000Y-47966000D03*
X86828000Y-47966000D03*
X88178000Y-49316000D03*
X86828000Y-49316000D03*
%TD*%
D14*
%TO.C,U1*%
X93919000Y-58425500D03*
X95819000Y-58425500D03*
X95819000Y-60700500D03*
X94869000Y-60700500D03*
X93919000Y-60700500D03*
%TD*%
D15*
%TO.C,R3*%
X90490001Y-55049500D03*
X90490001Y-56699500D03*
%TD*%
D16*
%TO.C,R2*%
X92395001Y-56699500D03*
X92395001Y-55049500D03*
%TD*%
D15*
%TO.C,R1*%
X95885000Y-62421000D03*
X95885000Y-64071000D03*
%TD*%
D17*
%TO.C,C8*%
X91453000Y-45085000D03*
X89903000Y-45085000D03*
%TD*%
D18*
%TO.C,C7*%
X81775000Y-47752000D03*
X83325000Y-47752000D03*
%TD*%
D19*
%TO.C,C6*%
X88303000Y-43548000D03*
X88303000Y-45098000D03*
%TD*%
D18*
%TO.C,C5*%
X81775000Y-46228000D03*
X83325000Y-46228000D03*
%TD*%
D17*
%TO.C,C4*%
X92596000Y-47244000D03*
X91046000Y-47244000D03*
%TD*%
D20*
%TO.C,C3*%
X83312000Y-50813000D03*
X83312000Y-49263000D03*
%TD*%
D17*
%TO.C,C2*%
X95625000Y-56594000D03*
X94075000Y-56594000D03*
%TD*%
D18*
%TO.C,C1*%
X92570000Y-62484000D03*
X94120000Y-62484000D03*
%TD*%
D21*
%TO.C,R4*%
X82954500Y-53213000D03*
X81129500Y-53213000D03*
%TD*%
%TO.C,R5*%
X91717500Y-43180000D03*
X89892500Y-43180000D03*
%TD*%
M02*
