%TF.GenerationSoftware,KiCad,Pcbnew,10.0.1*%
%TF.CreationDate,2026-05-19T00:42:20+02:00*%
%TF.ProjectId,tuss4470-breakout,74757373-3434-4373-902d-627265616b6f,rev?*%
%TF.SameCoordinates,Original*%
%TF.FileFunction,Soldermask,Top*%
%TF.FilePolarity,Negative*%
%FSLAX46Y46*%
G04 Gerber Fmt 4.6, Leading zero omitted, Abs format (unit mm)*
G04 Created by KiCad (PCBNEW 10.0.1) date 2026-05-19 00:42:20*
%MOMM*%
%LPD*%
G01*
G04 APERTURE LIST*
G04 Aperture macros list*
%AMRoundRect*
0 Rectangle with rounded corners*
0 $1 Rounding radius*
0 $2 $3 $4 $5 $6 $7 $8 $9 X,Y pos of 4 corners*
0 Add a 4 corners polygon primitive as box body*
4,1,4,$2,$3,$4,$5,$6,$7,$8,$9,$2,$3,0*
0 Add four circle primitives for the rounded corners*
1,1,$1+$1,$2,$3*
1,1,$1+$1,$4,$5*
1,1,$1+$1,$6,$7*
1,1,$1+$1,$8,$9*
0 Add four rect primitives between the rounded corners*
20,1,$1+$1,$2,$3,$4,$5,0*
20,1,$1+$1,$4,$5,$6,$7,0*
20,1,$1+$1,$6,$7,$8,$9,0*
20,1,$1+$1,$8,$9,$2,$3,0*%
G04 Aperture macros list end*
%ADD10RoundRect,0.225000X-0.225000X-0.250000X0.225000X-0.250000X0.225000X0.250000X-0.225000X0.250000X0*%
%ADD11RoundRect,0.062500X0.062500X-0.350000X0.062500X0.350000X-0.062500X0.350000X-0.062500X-0.350000X0*%
%ADD12RoundRect,0.062500X0.350000X-0.062500X0.350000X0.062500X-0.350000X0.062500X-0.350000X-0.062500X0*%
%ADD13R,2.700000X2.700000*%
%ADD14RoundRect,0.225000X-0.250000X0.225000X-0.250000X-0.225000X0.250000X-0.225000X0.250000X0.225000X0*%
%ADD15RoundRect,0.200000X0.275000X-0.200000X0.275000X0.200000X-0.275000X0.200000X-0.275000X-0.200000X0*%
%ADD16RoundRect,0.225000X0.225000X0.250000X-0.225000X0.250000X-0.225000X-0.250000X0.225000X-0.250000X0*%
%ADD17RoundRect,0.200000X0.200000X0.275000X-0.200000X0.275000X-0.200000X-0.275000X0.200000X-0.275000X0*%
%ADD18RoundRect,0.250000X-0.750000X-0.750000X0.750000X-0.750000X0.750000X0.750000X-0.750000X0.750000X0*%
%ADD19C,2.000000*%
%ADD20RoundRect,0.200000X-0.275000X0.200000X-0.275000X-0.200000X0.275000X-0.200000X0.275000X0.200000X0*%
%ADD21C,3.200000*%
%ADD22RoundRect,0.150000X0.150000X-0.512500X0.150000X0.512500X-0.150000X0.512500X-0.150000X-0.512500X0*%
%ADD23RoundRect,0.250000X0.750000X0.750000X-0.750000X0.750000X-0.750000X-0.750000X0.750000X-0.750000X0*%
%ADD24R,1.700000X1.700000*%
%ADD25C,1.700000*%
%ADD26RoundRect,0.225000X-0.375000X0.225000X-0.375000X-0.225000X0.375000X-0.225000X0.375000X0.225000X0*%
%ADD27RoundRect,0.225000X0.250000X-0.225000X0.250000X0.225000X-0.250000X0.225000X-0.250000X-0.225000X0*%
G04 APERTURE END LIST*
D10*
%TO.C,C4*%
X91046000Y-47244000D03*
X92596000Y-47244000D03*
%TD*%
D11*
%TO.C,U2*%
X86503000Y-50603500D03*
X87003000Y-50603500D03*
X87503000Y-50603500D03*
X88003000Y-50603500D03*
X88503000Y-50603500D03*
D12*
X89465500Y-49641000D03*
X89465500Y-49141000D03*
X89465500Y-48641000D03*
X89465500Y-48141000D03*
X89465500Y-47641000D03*
D11*
X88503000Y-46678500D03*
X88003000Y-46678500D03*
X87503000Y-46678500D03*
X87003000Y-46678500D03*
X86503000Y-46678500D03*
D12*
X85540500Y-47641000D03*
X85540500Y-48141000D03*
X85540500Y-48641000D03*
X85540500Y-49141000D03*
X85540500Y-49641000D03*
D13*
X87503000Y-48641000D03*
%TD*%
D14*
%TO.C,C3*%
X83312000Y-49263000D03*
X83312000Y-50813000D03*
%TD*%
D15*
%TO.C,R3*%
X90490001Y-56699500D03*
X90490001Y-55049500D03*
%TD*%
D10*
%TO.C,C8*%
X89903000Y-45085000D03*
X91453000Y-45085000D03*
%TD*%
D16*
%TO.C,C5*%
X83325000Y-46228000D03*
X81775000Y-46228000D03*
%TD*%
%TO.C,C1*%
X94120000Y-62484000D03*
X92570000Y-62484000D03*
%TD*%
D17*
%TO.C,R5*%
X91503000Y-43434000D03*
X89853000Y-43434000D03*
%TD*%
D16*
%TO.C,C7*%
X83325000Y-47752000D03*
X81775000Y-47752000D03*
%TD*%
D10*
%TO.C,C2*%
X94075000Y-56594000D03*
X95625000Y-56594000D03*
%TD*%
D18*
%TO.C,J1*%
X85090000Y-62230000D03*
D19*
X87630000Y-62230000D03*
%TD*%
D20*
%TO.C,R2*%
X92395001Y-55049500D03*
X92395001Y-56699500D03*
%TD*%
D21*
%TO.C,H1*%
X77470000Y-38100000D03*
%TD*%
D15*
%TO.C,R4*%
X81788000Y-54292000D03*
X81788000Y-52642000D03*
%TD*%
D22*
%TO.C,U1*%
X93919000Y-60700500D03*
X94869000Y-60700500D03*
X95819000Y-60700500D03*
X95819000Y-58425500D03*
X93919000Y-58425500D03*
%TD*%
D23*
%TO.C,J4*%
X88900000Y-38100000D03*
D19*
X86360000Y-38100000D03*
%TD*%
D21*
%TO.C,H2*%
X97790000Y-38100000D03*
%TD*%
D24*
%TO.C,JP1*%
X80518000Y-64008000D03*
D25*
X80518000Y-61468000D03*
X80518000Y-58928000D03*
%TD*%
D15*
%TO.C,R1*%
X95885000Y-64071000D03*
X95885000Y-62421000D03*
%TD*%
D26*
%TO.C,D1*%
X79756000Y-52071000D03*
X79756000Y-55371000D03*
%TD*%
D27*
%TO.C,C6*%
X88303000Y-45098000D03*
X88303000Y-43548000D03*
%TD*%
D24*
%TO.C,J2*%
X76200000Y-45720000D03*
D25*
X76200000Y-48260000D03*
X76200000Y-50800000D03*
X76200000Y-53340000D03*
X76200000Y-55880000D03*
X76200000Y-58420000D03*
X76200000Y-60960000D03*
X76200000Y-63500000D03*
%TD*%
D24*
%TO.C,J3*%
X99060000Y-45720000D03*
D25*
X99060000Y-48260000D03*
X99060000Y-50800000D03*
X99060000Y-53340000D03*
X99060000Y-55880000D03*
X99060000Y-58420000D03*
X99060000Y-60960000D03*
X99060000Y-63500000D03*
%TD*%
M02*
