M48
; DRILL file KiCad 10.0.1 date 2026-05-19T00:42:23
; FORMAT={-:-/ absolute / metric / decimal}
; #@! TF.CreationDate,2026-05-19T00:42:23+02:00
; #@! TF.GenerationSoftware,Kicad,Pcbnew,10.0.1
; #@! TF.FileFunction,Plated,1,4,PTH
FMAT,2
METRIC
; #@! TA.AperFunction,Plated,PTH,ComponentDrill
T1C0.200
; #@! TA.AperFunction,Plated,PTH,ViaDrill
T2C0.300
; #@! TA.AperFunction,Plated,PTH,ComponentDrill
T3C1.000
; #@! TA.AperFunction,Plated,PTH,ComponentDrill
T4C1.200
%
G90
G05
T1
X86.403Y-47.541
X86.403Y-48.641
X86.403Y-49.741
X87.503Y-47.541
X87.503Y-48.641
X87.503Y-49.741
X88.603Y-47.541
X88.603Y-48.641
X88.603Y-49.741
T2
X76.2Y-43.18
X78.74Y-43.18
X78.74Y-48.26
X80.772Y-49.276
X81.153Y-50.546
X81.28Y-35.56
X81.28Y-38.1
X81.28Y-40.64
X81.28Y-43.18
X82.423Y-49.276
X83.82Y-35.56
X83.82Y-38.1
X83.82Y-40.64
X83.82Y-43.18
X84.328Y-49.149
X86.233Y-51.323
X86.36Y-35.56
X86.36Y-58.42
X87.353Y-53.975
X87.757Y-54.991
X88.392Y-56.642
X88.9Y-35.56
X88.9Y-58.42
X88.9Y-60.96
X88.9Y-63.5
X89.408Y-55.88
X90.424Y-57.404
X90.678Y-52.451
X91.059Y-48.387
X91.417Y-49.103
X91.44Y-35.56
X91.44Y-38.1
X91.44Y-58.42
X92.583Y-61.468
X93.98Y-35.56
X93.98Y-38.1
X93.98Y-40.64
X93.98Y-53.34
X94.869Y-59.436
X96.52Y-35.56
X96.52Y-40.64
X96.52Y-43.18
X96.52Y-45.72
X96.52Y-53.34
X96.647Y-56.642
X99.06Y-40.64
X99.06Y-43.18
T3
X76.2Y-45.72
X76.2Y-48.26
X76.2Y-50.8
X76.2Y-53.34
X76.2Y-55.88
X76.2Y-58.42
X76.2Y-60.96
X76.2Y-63.5
X80.518Y-58.928
X80.518Y-61.468
X80.518Y-64.008
X99.06Y-45.72
X99.06Y-48.26
X99.06Y-50.8
X99.06Y-53.34
X99.06Y-55.88
X99.06Y-58.42
X99.06Y-60.96
X99.06Y-63.5
T4
X85.09Y-62.23
X86.36Y-38.1
X87.63Y-62.23
X88.9Y-38.1
M30
