%TF.GenerationSoftware,KiCad,Pcbnew,10.0.1*%
%TF.CreationDate,2026-05-19T00:42:20+02:00*%
%TF.ProjectId,tuss4470-breakout,74757373-3434-4373-902d-627265616b6f,rev?*%
%TF.SameCoordinates,Original*%
%TF.FileFunction,Legend,Top*%
%TF.FilePolarity,Positive*%
%FSLAX46Y46*%
G04 Gerber Fmt 4.6, Leading zero omitted, Abs format (unit mm)*
G04 Created by KiCad (PCBNEW 10.0.1) date 2026-05-19 00:42:20*
%MOMM*%
%LPD*%
G01*
G04 APERTURE LIST*
%ADD10C,0.200000*%
%ADD11C,0.150000*%
%ADD12C,0.120000*%
G04 APERTURE END LIST*
D10*
X84435720Y-58162600D02*
X85578578Y-58162600D01*
X85007149Y-58734028D02*
X85007149Y-57591171D01*
X84729435Y-55583028D02*
X85229435Y-57083028D01*
X85229435Y-57083028D02*
X85729435Y-55583028D01*
X86229434Y-57083028D02*
X86229434Y-55583028D01*
X86943720Y-57083028D02*
X86943720Y-55583028D01*
X86943720Y-55583028D02*
X87800863Y-57083028D01*
X87800863Y-57083028D02*
X87800863Y-55583028D01*
X87102720Y-58162600D02*
X88245578Y-58162600D01*
X82126028Y-41635564D02*
X82126028Y-40778422D01*
X83626028Y-41206993D02*
X82126028Y-41206993D01*
X83626028Y-39421279D02*
X82911742Y-39921279D01*
X83626028Y-40278422D02*
X82126028Y-40278422D01*
X82126028Y-40278422D02*
X82126028Y-39706993D01*
X82126028Y-39706993D02*
X82197457Y-39564136D01*
X82197457Y-39564136D02*
X82268885Y-39492707D01*
X82268885Y-39492707D02*
X82411742Y-39421279D01*
X82411742Y-39421279D02*
X82626028Y-39421279D01*
X82626028Y-39421279D02*
X82768885Y-39492707D01*
X82768885Y-39492707D02*
X82840314Y-39564136D01*
X82840314Y-39564136D02*
X82911742Y-39706993D01*
X82911742Y-39706993D02*
X82911742Y-40278422D01*
X83197457Y-38849850D02*
X83197457Y-38135565D01*
X83626028Y-38992707D02*
X82126028Y-38492707D01*
X82126028Y-38492707D02*
X83626028Y-37992707D01*
X83626028Y-37492708D02*
X82126028Y-37492708D01*
X82126028Y-37492708D02*
X83626028Y-36635565D01*
X83626028Y-36635565D02*
X82126028Y-36635565D01*
X83554600Y-35992707D02*
X83626028Y-35778422D01*
X83626028Y-35778422D02*
X83626028Y-35421279D01*
X83626028Y-35421279D02*
X83554600Y-35278422D01*
X83554600Y-35278422D02*
X83483171Y-35206993D01*
X83483171Y-35206993D02*
X83340314Y-35135564D01*
X83340314Y-35135564D02*
X83197457Y-35135564D01*
X83197457Y-35135564D02*
X83054600Y-35206993D01*
X83054600Y-35206993D02*
X82983171Y-35278422D01*
X82983171Y-35278422D02*
X82911742Y-35421279D01*
X82911742Y-35421279D02*
X82840314Y-35706993D01*
X82840314Y-35706993D02*
X82768885Y-35849850D01*
X82768885Y-35849850D02*
X82697457Y-35921279D01*
X82697457Y-35921279D02*
X82554600Y-35992707D01*
X82554600Y-35992707D02*
X82411742Y-35992707D01*
X82411742Y-35992707D02*
X82268885Y-35921279D01*
X82268885Y-35921279D02*
X82197457Y-35849850D01*
X82197457Y-35849850D02*
X82126028Y-35706993D01*
X82126028Y-35706993D02*
X82126028Y-35349850D01*
X82126028Y-35349850D02*
X82197457Y-35135564D01*
X93151028Y-41421279D02*
X91651028Y-41421279D01*
X91651028Y-41421279D02*
X91651028Y-41064136D01*
X91651028Y-41064136D02*
X91722457Y-40849850D01*
X91722457Y-40849850D02*
X91865314Y-40706993D01*
X91865314Y-40706993D02*
X92008171Y-40635564D01*
X92008171Y-40635564D02*
X92293885Y-40564136D01*
X92293885Y-40564136D02*
X92508171Y-40564136D01*
X92508171Y-40564136D02*
X92793885Y-40635564D01*
X92793885Y-40635564D02*
X92936742Y-40706993D01*
X92936742Y-40706993D02*
X93079600Y-40849850D01*
X93079600Y-40849850D02*
X93151028Y-41064136D01*
X93151028Y-41064136D02*
X93151028Y-41421279D01*
X91651028Y-39921279D02*
X92865314Y-39921279D01*
X92865314Y-39921279D02*
X93008171Y-39849850D01*
X93008171Y-39849850D02*
X93079600Y-39778422D01*
X93079600Y-39778422D02*
X93151028Y-39635564D01*
X93151028Y-39635564D02*
X93151028Y-39349850D01*
X93151028Y-39349850D02*
X93079600Y-39206993D01*
X93079600Y-39206993D02*
X93008171Y-39135564D01*
X93008171Y-39135564D02*
X92865314Y-39064136D01*
X92865314Y-39064136D02*
X91651028Y-39064136D01*
X93008171Y-37492707D02*
X93079600Y-37564135D01*
X93079600Y-37564135D02*
X93151028Y-37778421D01*
X93151028Y-37778421D02*
X93151028Y-37921278D01*
X93151028Y-37921278D02*
X93079600Y-38135564D01*
X93079600Y-38135564D02*
X92936742Y-38278421D01*
X92936742Y-38278421D02*
X92793885Y-38349850D01*
X92793885Y-38349850D02*
X92508171Y-38421278D01*
X92508171Y-38421278D02*
X92293885Y-38421278D01*
X92293885Y-38421278D02*
X92008171Y-38349850D01*
X92008171Y-38349850D02*
X91865314Y-38278421D01*
X91865314Y-38278421D02*
X91722457Y-38135564D01*
X91722457Y-38135564D02*
X91651028Y-37921278D01*
X91651028Y-37921278D02*
X91651028Y-37778421D01*
X91651028Y-37778421D02*
X91722457Y-37564135D01*
X91722457Y-37564135D02*
X91793885Y-37492707D01*
X92365314Y-36849850D02*
X92365314Y-36349850D01*
X93151028Y-36135564D02*
X93151028Y-36849850D01*
X93151028Y-36849850D02*
X91651028Y-36849850D01*
X91651028Y-36849850D02*
X91651028Y-36135564D01*
X93151028Y-34635564D02*
X92436742Y-35135564D01*
X93151028Y-35492707D02*
X91651028Y-35492707D01*
X91651028Y-35492707D02*
X91651028Y-34921278D01*
X91651028Y-34921278D02*
X91722457Y-34778421D01*
X91722457Y-34778421D02*
X91793885Y-34706992D01*
X91793885Y-34706992D02*
X91936742Y-34635564D01*
X91936742Y-34635564D02*
X92151028Y-34635564D01*
X92151028Y-34635564D02*
X92293885Y-34706992D01*
X92293885Y-34706992D02*
X92365314Y-34778421D01*
X92365314Y-34778421D02*
X92436742Y-34921278D01*
X92436742Y-34921278D02*
X92436742Y-35492707D01*
D11*
X94194333Y-47603580D02*
X94146714Y-47651200D01*
X94146714Y-47651200D02*
X94003857Y-47698819D01*
X94003857Y-47698819D02*
X93908619Y-47698819D01*
X93908619Y-47698819D02*
X93765762Y-47651200D01*
X93765762Y-47651200D02*
X93670524Y-47555961D01*
X93670524Y-47555961D02*
X93622905Y-47460723D01*
X93622905Y-47460723D02*
X93575286Y-47270247D01*
X93575286Y-47270247D02*
X93575286Y-47127390D01*
X93575286Y-47127390D02*
X93622905Y-46936914D01*
X93622905Y-46936914D02*
X93670524Y-46841676D01*
X93670524Y-46841676D02*
X93765762Y-46746438D01*
X93765762Y-46746438D02*
X93908619Y-46698819D01*
X93908619Y-46698819D02*
X94003857Y-46698819D01*
X94003857Y-46698819D02*
X94146714Y-46746438D01*
X94146714Y-46746438D02*
X94194333Y-46794057D01*
X95051476Y-47032152D02*
X95051476Y-47698819D01*
X94813381Y-46651200D02*
X94575286Y-47365485D01*
X94575286Y-47365485D02*
X95194333Y-47365485D01*
X86868095Y-51524819D02*
X86868095Y-52334342D01*
X86868095Y-52334342D02*
X86915714Y-52429580D01*
X86915714Y-52429580D02*
X86963333Y-52477200D01*
X86963333Y-52477200D02*
X87058571Y-52524819D01*
X87058571Y-52524819D02*
X87249047Y-52524819D01*
X87249047Y-52524819D02*
X87344285Y-52477200D01*
X87344285Y-52477200D02*
X87391904Y-52429580D01*
X87391904Y-52429580D02*
X87439523Y-52334342D01*
X87439523Y-52334342D02*
X87439523Y-51524819D01*
X87868095Y-51620057D02*
X87915714Y-51572438D01*
X87915714Y-51572438D02*
X88010952Y-51524819D01*
X88010952Y-51524819D02*
X88249047Y-51524819D01*
X88249047Y-51524819D02*
X88344285Y-51572438D01*
X88344285Y-51572438D02*
X88391904Y-51620057D01*
X88391904Y-51620057D02*
X88439523Y-51715295D01*
X88439523Y-51715295D02*
X88439523Y-51810533D01*
X88439523Y-51810533D02*
X88391904Y-51953390D01*
X88391904Y-51953390D02*
X87820476Y-52524819D01*
X87820476Y-52524819D02*
X88439523Y-52524819D01*
X83671580Y-52744666D02*
X83719200Y-52792285D01*
X83719200Y-52792285D02*
X83766819Y-52935142D01*
X83766819Y-52935142D02*
X83766819Y-53030380D01*
X83766819Y-53030380D02*
X83719200Y-53173237D01*
X83719200Y-53173237D02*
X83623961Y-53268475D01*
X83623961Y-53268475D02*
X83528723Y-53316094D01*
X83528723Y-53316094D02*
X83338247Y-53363713D01*
X83338247Y-53363713D02*
X83195390Y-53363713D01*
X83195390Y-53363713D02*
X83004914Y-53316094D01*
X83004914Y-53316094D02*
X82909676Y-53268475D01*
X82909676Y-53268475D02*
X82814438Y-53173237D01*
X82814438Y-53173237D02*
X82766819Y-53030380D01*
X82766819Y-53030380D02*
X82766819Y-52935142D01*
X82766819Y-52935142D02*
X82814438Y-52792285D01*
X82814438Y-52792285D02*
X82862057Y-52744666D01*
X82766819Y-52411332D02*
X82766819Y-51792285D01*
X82766819Y-51792285D02*
X83147771Y-52125618D01*
X83147771Y-52125618D02*
X83147771Y-51982761D01*
X83147771Y-51982761D02*
X83195390Y-51887523D01*
X83195390Y-51887523D02*
X83243009Y-51839904D01*
X83243009Y-51839904D02*
X83338247Y-51792285D01*
X83338247Y-51792285D02*
X83576342Y-51792285D01*
X83576342Y-51792285D02*
X83671580Y-51839904D01*
X83671580Y-51839904D02*
X83719200Y-51887523D01*
X83719200Y-51887523D02*
X83766819Y-51982761D01*
X83766819Y-51982761D02*
X83766819Y-52268475D01*
X83766819Y-52268475D02*
X83719200Y-52363713D01*
X83719200Y-52363713D02*
X83671580Y-52411332D01*
X90878819Y-53506666D02*
X90402628Y-53839999D01*
X90878819Y-54078094D02*
X89878819Y-54078094D01*
X89878819Y-54078094D02*
X89878819Y-53697142D01*
X89878819Y-53697142D02*
X89926438Y-53601904D01*
X89926438Y-53601904D02*
X89974057Y-53554285D01*
X89974057Y-53554285D02*
X90069295Y-53506666D01*
X90069295Y-53506666D02*
X90212152Y-53506666D01*
X90212152Y-53506666D02*
X90307390Y-53554285D01*
X90307390Y-53554285D02*
X90355009Y-53601904D01*
X90355009Y-53601904D02*
X90402628Y-53697142D01*
X90402628Y-53697142D02*
X90402628Y-54078094D01*
X89878819Y-53173332D02*
X89878819Y-52554285D01*
X89878819Y-52554285D02*
X90259771Y-52887618D01*
X90259771Y-52887618D02*
X90259771Y-52744761D01*
X90259771Y-52744761D02*
X90307390Y-52649523D01*
X90307390Y-52649523D02*
X90355009Y-52601904D01*
X90355009Y-52601904D02*
X90450247Y-52554285D01*
X90450247Y-52554285D02*
X90688342Y-52554285D01*
X90688342Y-52554285D02*
X90783580Y-52601904D01*
X90783580Y-52601904D02*
X90831200Y-52649523D01*
X90831200Y-52649523D02*
X90878819Y-52744761D01*
X90878819Y-52744761D02*
X90878819Y-53030475D01*
X90878819Y-53030475D02*
X90831200Y-53125713D01*
X90831200Y-53125713D02*
X90783580Y-53173332D01*
X93051333Y-45444580D02*
X93003714Y-45492200D01*
X93003714Y-45492200D02*
X92860857Y-45539819D01*
X92860857Y-45539819D02*
X92765619Y-45539819D01*
X92765619Y-45539819D02*
X92622762Y-45492200D01*
X92622762Y-45492200D02*
X92527524Y-45396961D01*
X92527524Y-45396961D02*
X92479905Y-45301723D01*
X92479905Y-45301723D02*
X92432286Y-45111247D01*
X92432286Y-45111247D02*
X92432286Y-44968390D01*
X92432286Y-44968390D02*
X92479905Y-44777914D01*
X92479905Y-44777914D02*
X92527524Y-44682676D01*
X92527524Y-44682676D02*
X92622762Y-44587438D01*
X92622762Y-44587438D02*
X92765619Y-44539819D01*
X92765619Y-44539819D02*
X92860857Y-44539819D01*
X92860857Y-44539819D02*
X93003714Y-44587438D01*
X93003714Y-44587438D02*
X93051333Y-44635057D01*
X93622762Y-44968390D02*
X93527524Y-44920771D01*
X93527524Y-44920771D02*
X93479905Y-44873152D01*
X93479905Y-44873152D02*
X93432286Y-44777914D01*
X93432286Y-44777914D02*
X93432286Y-44730295D01*
X93432286Y-44730295D02*
X93479905Y-44635057D01*
X93479905Y-44635057D02*
X93527524Y-44587438D01*
X93527524Y-44587438D02*
X93622762Y-44539819D01*
X93622762Y-44539819D02*
X93813238Y-44539819D01*
X93813238Y-44539819D02*
X93908476Y-44587438D01*
X93908476Y-44587438D02*
X93956095Y-44635057D01*
X93956095Y-44635057D02*
X94003714Y-44730295D01*
X94003714Y-44730295D02*
X94003714Y-44777914D01*
X94003714Y-44777914D02*
X93956095Y-44873152D01*
X93956095Y-44873152D02*
X93908476Y-44920771D01*
X93908476Y-44920771D02*
X93813238Y-44968390D01*
X93813238Y-44968390D02*
X93622762Y-44968390D01*
X93622762Y-44968390D02*
X93527524Y-45016009D01*
X93527524Y-45016009D02*
X93479905Y-45063628D01*
X93479905Y-45063628D02*
X93432286Y-45158866D01*
X93432286Y-45158866D02*
X93432286Y-45349342D01*
X93432286Y-45349342D02*
X93479905Y-45444580D01*
X93479905Y-45444580D02*
X93527524Y-45492200D01*
X93527524Y-45492200D02*
X93622762Y-45539819D01*
X93622762Y-45539819D02*
X93813238Y-45539819D01*
X93813238Y-45539819D02*
X93908476Y-45492200D01*
X93908476Y-45492200D02*
X93956095Y-45444580D01*
X93956095Y-45444580D02*
X94003714Y-45349342D01*
X94003714Y-45349342D02*
X94003714Y-45158866D01*
X94003714Y-45158866D02*
X93956095Y-45063628D01*
X93956095Y-45063628D02*
X93908476Y-45016009D01*
X93908476Y-45016009D02*
X93813238Y-44968390D01*
X79716333Y-46587580D02*
X79668714Y-46635200D01*
X79668714Y-46635200D02*
X79525857Y-46682819D01*
X79525857Y-46682819D02*
X79430619Y-46682819D01*
X79430619Y-46682819D02*
X79287762Y-46635200D01*
X79287762Y-46635200D02*
X79192524Y-46539961D01*
X79192524Y-46539961D02*
X79144905Y-46444723D01*
X79144905Y-46444723D02*
X79097286Y-46254247D01*
X79097286Y-46254247D02*
X79097286Y-46111390D01*
X79097286Y-46111390D02*
X79144905Y-45920914D01*
X79144905Y-45920914D02*
X79192524Y-45825676D01*
X79192524Y-45825676D02*
X79287762Y-45730438D01*
X79287762Y-45730438D02*
X79430619Y-45682819D01*
X79430619Y-45682819D02*
X79525857Y-45682819D01*
X79525857Y-45682819D02*
X79668714Y-45730438D01*
X79668714Y-45730438D02*
X79716333Y-45778057D01*
X80621095Y-45682819D02*
X80144905Y-45682819D01*
X80144905Y-45682819D02*
X80097286Y-46159009D01*
X80097286Y-46159009D02*
X80144905Y-46111390D01*
X80144905Y-46111390D02*
X80240143Y-46063771D01*
X80240143Y-46063771D02*
X80478238Y-46063771D01*
X80478238Y-46063771D02*
X80573476Y-46111390D01*
X80573476Y-46111390D02*
X80621095Y-46159009D01*
X80621095Y-46159009D02*
X80668714Y-46254247D01*
X80668714Y-46254247D02*
X80668714Y-46492342D01*
X80668714Y-46492342D02*
X80621095Y-46587580D01*
X80621095Y-46587580D02*
X80573476Y-46635200D01*
X80573476Y-46635200D02*
X80478238Y-46682819D01*
X80478238Y-46682819D02*
X80240143Y-46682819D01*
X80240143Y-46682819D02*
X80144905Y-46635200D01*
X80144905Y-46635200D02*
X80097286Y-46587580D01*
X90765333Y-62843580D02*
X90717714Y-62891200D01*
X90717714Y-62891200D02*
X90574857Y-62938819D01*
X90574857Y-62938819D02*
X90479619Y-62938819D01*
X90479619Y-62938819D02*
X90336762Y-62891200D01*
X90336762Y-62891200D02*
X90241524Y-62795961D01*
X90241524Y-62795961D02*
X90193905Y-62700723D01*
X90193905Y-62700723D02*
X90146286Y-62510247D01*
X90146286Y-62510247D02*
X90146286Y-62367390D01*
X90146286Y-62367390D02*
X90193905Y-62176914D01*
X90193905Y-62176914D02*
X90241524Y-62081676D01*
X90241524Y-62081676D02*
X90336762Y-61986438D01*
X90336762Y-61986438D02*
X90479619Y-61938819D01*
X90479619Y-61938819D02*
X90574857Y-61938819D01*
X90574857Y-61938819D02*
X90717714Y-61986438D01*
X90717714Y-61986438D02*
X90765333Y-62034057D01*
X91717714Y-62938819D02*
X91146286Y-62938819D01*
X91432000Y-62938819D02*
X91432000Y-61938819D01*
X91432000Y-61938819D02*
X91336762Y-62081676D01*
X91336762Y-62081676D02*
X91241524Y-62176914D01*
X91241524Y-62176914D02*
X91146286Y-62224533D01*
X93051333Y-43888819D02*
X92718000Y-43412628D01*
X92479905Y-43888819D02*
X92479905Y-42888819D01*
X92479905Y-42888819D02*
X92860857Y-42888819D01*
X92860857Y-42888819D02*
X92956095Y-42936438D01*
X92956095Y-42936438D02*
X93003714Y-42984057D01*
X93003714Y-42984057D02*
X93051333Y-43079295D01*
X93051333Y-43079295D02*
X93051333Y-43222152D01*
X93051333Y-43222152D02*
X93003714Y-43317390D01*
X93003714Y-43317390D02*
X92956095Y-43365009D01*
X92956095Y-43365009D02*
X92860857Y-43412628D01*
X92860857Y-43412628D02*
X92479905Y-43412628D01*
X93956095Y-42888819D02*
X93479905Y-42888819D01*
X93479905Y-42888819D02*
X93432286Y-43365009D01*
X93432286Y-43365009D02*
X93479905Y-43317390D01*
X93479905Y-43317390D02*
X93575143Y-43269771D01*
X93575143Y-43269771D02*
X93813238Y-43269771D01*
X93813238Y-43269771D02*
X93908476Y-43317390D01*
X93908476Y-43317390D02*
X93956095Y-43365009D01*
X93956095Y-43365009D02*
X94003714Y-43460247D01*
X94003714Y-43460247D02*
X94003714Y-43698342D01*
X94003714Y-43698342D02*
X93956095Y-43793580D01*
X93956095Y-43793580D02*
X93908476Y-43841200D01*
X93908476Y-43841200D02*
X93813238Y-43888819D01*
X93813238Y-43888819D02*
X93575143Y-43888819D01*
X93575143Y-43888819D02*
X93479905Y-43841200D01*
X93479905Y-43841200D02*
X93432286Y-43793580D01*
X79716333Y-48111580D02*
X79668714Y-48159200D01*
X79668714Y-48159200D02*
X79525857Y-48206819D01*
X79525857Y-48206819D02*
X79430619Y-48206819D01*
X79430619Y-48206819D02*
X79287762Y-48159200D01*
X79287762Y-48159200D02*
X79192524Y-48063961D01*
X79192524Y-48063961D02*
X79144905Y-47968723D01*
X79144905Y-47968723D02*
X79097286Y-47778247D01*
X79097286Y-47778247D02*
X79097286Y-47635390D01*
X79097286Y-47635390D02*
X79144905Y-47444914D01*
X79144905Y-47444914D02*
X79192524Y-47349676D01*
X79192524Y-47349676D02*
X79287762Y-47254438D01*
X79287762Y-47254438D02*
X79430619Y-47206819D01*
X79430619Y-47206819D02*
X79525857Y-47206819D01*
X79525857Y-47206819D02*
X79668714Y-47254438D01*
X79668714Y-47254438D02*
X79716333Y-47302057D01*
X80049667Y-47206819D02*
X80716333Y-47206819D01*
X80716333Y-47206819D02*
X80287762Y-48206819D01*
X94683333Y-55523580D02*
X94635714Y-55571200D01*
X94635714Y-55571200D02*
X94492857Y-55618819D01*
X94492857Y-55618819D02*
X94397619Y-55618819D01*
X94397619Y-55618819D02*
X94254762Y-55571200D01*
X94254762Y-55571200D02*
X94159524Y-55475961D01*
X94159524Y-55475961D02*
X94111905Y-55380723D01*
X94111905Y-55380723D02*
X94064286Y-55190247D01*
X94064286Y-55190247D02*
X94064286Y-55047390D01*
X94064286Y-55047390D02*
X94111905Y-54856914D01*
X94111905Y-54856914D02*
X94159524Y-54761676D01*
X94159524Y-54761676D02*
X94254762Y-54666438D01*
X94254762Y-54666438D02*
X94397619Y-54618819D01*
X94397619Y-54618819D02*
X94492857Y-54618819D01*
X94492857Y-54618819D02*
X94635714Y-54666438D01*
X94635714Y-54666438D02*
X94683333Y-54714057D01*
X95064286Y-54714057D02*
X95111905Y-54666438D01*
X95111905Y-54666438D02*
X95207143Y-54618819D01*
X95207143Y-54618819D02*
X95445238Y-54618819D01*
X95445238Y-54618819D02*
X95540476Y-54666438D01*
X95540476Y-54666438D02*
X95588095Y-54714057D01*
X95588095Y-54714057D02*
X95635714Y-54809295D01*
X95635714Y-54809295D02*
X95635714Y-54904533D01*
X95635714Y-54904533D02*
X95588095Y-55047390D01*
X95588095Y-55047390D02*
X95016667Y-55618819D01*
X95016667Y-55618819D02*
X95635714Y-55618819D01*
X92910819Y-53506666D02*
X92434628Y-53839999D01*
X92910819Y-54078094D02*
X91910819Y-54078094D01*
X91910819Y-54078094D02*
X91910819Y-53697142D01*
X91910819Y-53697142D02*
X91958438Y-53601904D01*
X91958438Y-53601904D02*
X92006057Y-53554285D01*
X92006057Y-53554285D02*
X92101295Y-53506666D01*
X92101295Y-53506666D02*
X92244152Y-53506666D01*
X92244152Y-53506666D02*
X92339390Y-53554285D01*
X92339390Y-53554285D02*
X92387009Y-53601904D01*
X92387009Y-53601904D02*
X92434628Y-53697142D01*
X92434628Y-53697142D02*
X92434628Y-54078094D01*
X92006057Y-53125713D02*
X91958438Y-53078094D01*
X91958438Y-53078094D02*
X91910819Y-52982856D01*
X91910819Y-52982856D02*
X91910819Y-52744761D01*
X91910819Y-52744761D02*
X91958438Y-52649523D01*
X91958438Y-52649523D02*
X92006057Y-52601904D01*
X92006057Y-52601904D02*
X92101295Y-52554285D01*
X92101295Y-52554285D02*
X92196533Y-52554285D01*
X92196533Y-52554285D02*
X92339390Y-52601904D01*
X92339390Y-52601904D02*
X92910819Y-53173332D01*
X92910819Y-53173332D02*
X92910819Y-52554285D01*
X82242819Y-56173666D02*
X81766628Y-56506999D01*
X82242819Y-56745094D02*
X81242819Y-56745094D01*
X81242819Y-56745094D02*
X81242819Y-56364142D01*
X81242819Y-56364142D02*
X81290438Y-56268904D01*
X81290438Y-56268904D02*
X81338057Y-56221285D01*
X81338057Y-56221285D02*
X81433295Y-56173666D01*
X81433295Y-56173666D02*
X81576152Y-56173666D01*
X81576152Y-56173666D02*
X81671390Y-56221285D01*
X81671390Y-56221285D02*
X81719009Y-56268904D01*
X81719009Y-56268904D02*
X81766628Y-56364142D01*
X81766628Y-56364142D02*
X81766628Y-56745094D01*
X81576152Y-55316523D02*
X82242819Y-55316523D01*
X81195200Y-55554618D02*
X81909485Y-55792713D01*
X81909485Y-55792713D02*
X81909485Y-55173666D01*
X91313095Y-59144819D02*
X91313095Y-59954342D01*
X91313095Y-59954342D02*
X91360714Y-60049580D01*
X91360714Y-60049580D02*
X91408333Y-60097200D01*
X91408333Y-60097200D02*
X91503571Y-60144819D01*
X91503571Y-60144819D02*
X91694047Y-60144819D01*
X91694047Y-60144819D02*
X91789285Y-60097200D01*
X91789285Y-60097200D02*
X91836904Y-60049580D01*
X91836904Y-60049580D02*
X91884523Y-59954342D01*
X91884523Y-59954342D02*
X91884523Y-59144819D01*
X92884523Y-60144819D02*
X92313095Y-60144819D01*
X92598809Y-60144819D02*
X92598809Y-59144819D01*
X92598809Y-59144819D02*
X92503571Y-59287676D01*
X92503571Y-59287676D02*
X92408333Y-59382914D01*
X92408333Y-59382914D02*
X92313095Y-59430533D01*
X93813333Y-64589819D02*
X93480000Y-64113628D01*
X93241905Y-64589819D02*
X93241905Y-63589819D01*
X93241905Y-63589819D02*
X93622857Y-63589819D01*
X93622857Y-63589819D02*
X93718095Y-63637438D01*
X93718095Y-63637438D02*
X93765714Y-63685057D01*
X93765714Y-63685057D02*
X93813333Y-63780295D01*
X93813333Y-63780295D02*
X93813333Y-63923152D01*
X93813333Y-63923152D02*
X93765714Y-64018390D01*
X93765714Y-64018390D02*
X93718095Y-64066009D01*
X93718095Y-64066009D02*
X93622857Y-64113628D01*
X93622857Y-64113628D02*
X93241905Y-64113628D01*
X94765714Y-64589819D02*
X94194286Y-64589819D01*
X94480000Y-64589819D02*
X94480000Y-63589819D01*
X94480000Y-63589819D02*
X94384762Y-63732676D01*
X94384762Y-63732676D02*
X94289524Y-63827914D01*
X94289524Y-63827914D02*
X94194286Y-63875533D01*
X80210819Y-51030094D02*
X79210819Y-51030094D01*
X79210819Y-51030094D02*
X79210819Y-50791999D01*
X79210819Y-50791999D02*
X79258438Y-50649142D01*
X79258438Y-50649142D02*
X79353676Y-50553904D01*
X79353676Y-50553904D02*
X79448914Y-50506285D01*
X79448914Y-50506285D02*
X79639390Y-50458666D01*
X79639390Y-50458666D02*
X79782247Y-50458666D01*
X79782247Y-50458666D02*
X79972723Y-50506285D01*
X79972723Y-50506285D02*
X80067961Y-50553904D01*
X80067961Y-50553904D02*
X80163200Y-50649142D01*
X80163200Y-50649142D02*
X80210819Y-50791999D01*
X80210819Y-50791999D02*
X80210819Y-51030094D01*
X80210819Y-49506285D02*
X80210819Y-50077713D01*
X80210819Y-49791999D02*
X79210819Y-49791999D01*
X79210819Y-49791999D02*
X79353676Y-49887237D01*
X79353676Y-49887237D02*
X79448914Y-49982475D01*
X79448914Y-49982475D02*
X79496533Y-50077713D01*
X87227580Y-44489666D02*
X87275200Y-44537285D01*
X87275200Y-44537285D02*
X87322819Y-44680142D01*
X87322819Y-44680142D02*
X87322819Y-44775380D01*
X87322819Y-44775380D02*
X87275200Y-44918237D01*
X87275200Y-44918237D02*
X87179961Y-45013475D01*
X87179961Y-45013475D02*
X87084723Y-45061094D01*
X87084723Y-45061094D02*
X86894247Y-45108713D01*
X86894247Y-45108713D02*
X86751390Y-45108713D01*
X86751390Y-45108713D02*
X86560914Y-45061094D01*
X86560914Y-45061094D02*
X86465676Y-45013475D01*
X86465676Y-45013475D02*
X86370438Y-44918237D01*
X86370438Y-44918237D02*
X86322819Y-44775380D01*
X86322819Y-44775380D02*
X86322819Y-44680142D01*
X86322819Y-44680142D02*
X86370438Y-44537285D01*
X86370438Y-44537285D02*
X86418057Y-44489666D01*
X86322819Y-43632523D02*
X86322819Y-43822999D01*
X86322819Y-43822999D02*
X86370438Y-43918237D01*
X86370438Y-43918237D02*
X86418057Y-43965856D01*
X86418057Y-43965856D02*
X86560914Y-44061094D01*
X86560914Y-44061094D02*
X86751390Y-44108713D01*
X86751390Y-44108713D02*
X87132342Y-44108713D01*
X87132342Y-44108713D02*
X87227580Y-44061094D01*
X87227580Y-44061094D02*
X87275200Y-44013475D01*
X87275200Y-44013475D02*
X87322819Y-43918237D01*
X87322819Y-43918237D02*
X87322819Y-43727761D01*
X87322819Y-43727761D02*
X87275200Y-43632523D01*
X87275200Y-43632523D02*
X87227580Y-43584904D01*
X87227580Y-43584904D02*
X87132342Y-43537285D01*
X87132342Y-43537285D02*
X86894247Y-43537285D01*
X86894247Y-43537285D02*
X86799009Y-43584904D01*
X86799009Y-43584904D02*
X86751390Y-43632523D01*
X86751390Y-43632523D02*
X86703771Y-43727761D01*
X86703771Y-43727761D02*
X86703771Y-43918237D01*
X86703771Y-43918237D02*
X86751390Y-44013475D01*
X86751390Y-44013475D02*
X86799009Y-44061094D01*
X86799009Y-44061094D02*
X86894247Y-44108713D01*
%TO.C,C4*%
D12*
X91680420Y-46734000D02*
X91961580Y-46734000D01*
X91680420Y-47754000D02*
X91961580Y-47754000D01*
%TO.C,U2*%
X85393000Y-46531000D02*
X86118000Y-46531000D01*
X85393000Y-47256000D02*
X85393000Y-46531000D01*
X85393000Y-50751000D02*
X85393000Y-50026000D01*
X86118000Y-50751000D02*
X85393000Y-50751000D01*
X88888000Y-46531000D02*
X89613000Y-46531000D01*
X89613000Y-46531000D02*
X89613000Y-47256000D01*
X89613000Y-50026000D02*
X89613000Y-50751000D01*
X89613000Y-50751000D02*
X88888000Y-50751000D01*
X86743000Y-51611000D02*
X86263000Y-51611000D01*
X86503000Y-51281000D01*
X86743000Y-51611000D01*
G36*
X86743000Y-51611000D02*
G01*
X86263000Y-51611000D01*
X86503000Y-51281000D01*
X86743000Y-51611000D01*
G37*
%TO.C,C3*%
X82802000Y-49897420D02*
X82802000Y-50178580D01*
X83822000Y-49897420D02*
X83822000Y-50178580D01*
%TO.C,R3*%
X89967501Y-56111758D02*
X89967501Y-55637242D01*
X91012501Y-56111758D02*
X91012501Y-55637242D01*
%TO.C,C8*%
X90537420Y-44575000D02*
X90818580Y-44575000D01*
X90537420Y-45595000D02*
X90818580Y-45595000D01*
%TO.C,C5*%
X82690580Y-45718000D02*
X82409420Y-45718000D01*
X82690580Y-46738000D02*
X82409420Y-46738000D01*
%TO.C,C1*%
X93485580Y-61974000D02*
X93204420Y-61974000D01*
X93485580Y-62994000D02*
X93204420Y-62994000D01*
%TO.C,R5*%
X90915258Y-42911500D02*
X90440742Y-42911500D01*
X90915258Y-43956500D02*
X90440742Y-43956500D01*
%TO.C,C7*%
X82690580Y-47242000D02*
X82409420Y-47242000D01*
X82690580Y-48262000D02*
X82409420Y-48262000D01*
%TO.C,C2*%
X94709420Y-56084000D02*
X94990580Y-56084000D01*
X94709420Y-57104000D02*
X94990580Y-57104000D01*
%TO.C,J1*%
X83450000Y-59010000D02*
X89270000Y-59010000D01*
X83450000Y-60730000D02*
X89270000Y-60730000D01*
X83450000Y-63830000D02*
X89270000Y-63830000D01*
X83450000Y-64830000D02*
X89270000Y-64830000D01*
X83450000Y-65750000D02*
X83450000Y-59010000D01*
X84790000Y-65750000D02*
X83450000Y-65750000D01*
X89270000Y-59010000D02*
X89270000Y-65750000D01*
X89270000Y-65750000D02*
X85390000Y-65750000D01*
X85530000Y-66360000D02*
X84650000Y-66360000D01*
X85090000Y-65750000D01*
X85530000Y-66360000D01*
G36*
X85530000Y-66360000D02*
G01*
X84650000Y-66360000D01*
X85090000Y-65750000D01*
X85530000Y-66360000D01*
G37*
%TO.C,R2*%
X91872501Y-55637242D02*
X91872501Y-56111758D01*
X92917501Y-55637242D02*
X92917501Y-56111758D01*
%TO.C,R4*%
X81265500Y-53704258D02*
X81265500Y-53229742D01*
X82310500Y-53704258D02*
X82310500Y-53229742D01*
%TO.C,U1*%
X93309000Y-58653000D02*
X93359000Y-58653000D01*
X93309000Y-60473000D02*
X93309000Y-58653000D01*
X93359000Y-60473000D02*
X93309000Y-60473000D01*
X94479000Y-58653000D02*
X95259000Y-58653000D01*
X96379000Y-58653000D02*
X96429000Y-58653000D01*
X96429000Y-58653000D02*
X96429000Y-60473000D01*
X96429000Y-60473000D02*
X96379000Y-60473000D01*
X93359000Y-61013000D02*
X93029000Y-61253000D01*
X93029000Y-60773000D01*
X93359000Y-61013000D01*
G36*
X93359000Y-61013000D02*
G01*
X93029000Y-61253000D01*
X93029000Y-60773000D01*
X93359000Y-61013000D01*
G37*
%TO.C,J4*%
X84720000Y-34580000D02*
X88600000Y-34580000D01*
X84720000Y-41320000D02*
X84720000Y-34580000D01*
X89200000Y-34580000D02*
X90540000Y-34580000D01*
X90540000Y-34580000D02*
X90540000Y-41320000D01*
X90540000Y-35500000D02*
X84720000Y-35500000D01*
X90540000Y-36500000D02*
X84720000Y-36500000D01*
X90540000Y-39600000D02*
X84720000Y-39600000D01*
X90540000Y-41320000D02*
X84720000Y-41320000D01*
X88900000Y-34580000D02*
X88460000Y-33970000D01*
X89340000Y-33970000D01*
X88900000Y-34580000D01*
G36*
X88900000Y-34580000D02*
G01*
X88460000Y-33970000D01*
X89340000Y-33970000D01*
X88900000Y-34580000D01*
G37*
%TO.C,JP1*%
X79138000Y-62738000D02*
X79138000Y-57548000D01*
X81898000Y-57548000D02*
X79138000Y-57548000D01*
X81898000Y-62738000D02*
X79138000Y-62738000D01*
X81898000Y-62738000D02*
X81898000Y-57548000D01*
X81898000Y-64008000D02*
X81898000Y-65388000D01*
X81898000Y-65388000D02*
X80518000Y-65388000D01*
%TO.C,R1*%
X95362500Y-63483258D02*
X95362500Y-63008742D01*
X96407500Y-63483258D02*
X96407500Y-63008742D01*
%TO.C,D1*%
X78756000Y-51361000D02*
X78756000Y-55371000D01*
X80756000Y-51361000D02*
X78756000Y-51361000D01*
X80756000Y-51361000D02*
X80756000Y-55371000D01*
%TO.C,C6*%
X87793000Y-44463580D02*
X87793000Y-44182420D01*
X88813000Y-44463580D02*
X88813000Y-44182420D01*
%TD*%
M02*
