%TF.GenerationSoftware,KiCad,Pcbnew,10.0.1*%
%TF.CreationDate,2026-05-19T00:42:20+02:00*%
%TF.ProjectId,tuss4470-breakout,74757373-3434-4373-902d-627265616b6f,rev?*%
%TF.SameCoordinates,Original*%
%TF.FileFunction,Legend,Bot*%
%TF.FilePolarity,Positive*%
%FSLAX46Y46*%
G04 Gerber Fmt 4.6, Leading zero omitted, Abs format (unit mm)*
G04 Created by KiCad (PCBNEW 10.0.1) date 2026-05-19 00:42:20*
%MOMM*%
%LPD*%
G01*
G04 APERTURE LIST*
%ADD10C,0.150000*%
%ADD11C,0.120000*%
G04 APERTURE END LIST*
D10*
X96675411Y-63129438D02*
X96770649Y-63081819D01*
X96770649Y-63081819D02*
X96913506Y-63081819D01*
X96913506Y-63081819D02*
X97056363Y-63129438D01*
X97056363Y-63129438D02*
X97151601Y-63224676D01*
X97151601Y-63224676D02*
X97199220Y-63319914D01*
X97199220Y-63319914D02*
X97246839Y-63510390D01*
X97246839Y-63510390D02*
X97246839Y-63653247D01*
X97246839Y-63653247D02*
X97199220Y-63843723D01*
X97199220Y-63843723D02*
X97151601Y-63938961D01*
X97151601Y-63938961D02*
X97056363Y-64034200D01*
X97056363Y-64034200D02*
X96913506Y-64081819D01*
X96913506Y-64081819D02*
X96818268Y-64081819D01*
X96818268Y-64081819D02*
X96675411Y-64034200D01*
X96675411Y-64034200D02*
X96627792Y-63986580D01*
X96627792Y-63986580D02*
X96627792Y-63653247D01*
X96627792Y-63653247D02*
X96818268Y-63653247D01*
X96199220Y-64081819D02*
X96199220Y-63081819D01*
X96199220Y-63081819D02*
X95627792Y-64081819D01*
X95627792Y-64081819D02*
X95627792Y-63081819D01*
X95151601Y-64081819D02*
X95151601Y-63081819D01*
X95151601Y-63081819D02*
X94913506Y-63081819D01*
X94913506Y-63081819D02*
X94770649Y-63129438D01*
X94770649Y-63129438D02*
X94675411Y-63224676D01*
X94675411Y-63224676D02*
X94627792Y-63319914D01*
X94627792Y-63319914D02*
X94580173Y-63510390D01*
X94580173Y-63510390D02*
X94580173Y-63653247D01*
X94580173Y-63653247D02*
X94627792Y-63843723D01*
X94627792Y-63843723D02*
X94675411Y-63938961D01*
X94675411Y-63938961D02*
X94770649Y-64034200D01*
X94770649Y-64034200D02*
X94913506Y-64081819D01*
X94913506Y-64081819D02*
X95151601Y-64081819D01*
X97135744Y-47714819D02*
X96945268Y-47714819D01*
X96945268Y-47714819D02*
X96850030Y-47762438D01*
X96850030Y-47762438D02*
X96754792Y-47857676D01*
X96754792Y-47857676D02*
X96707173Y-48048152D01*
X96707173Y-48048152D02*
X96707173Y-48381485D01*
X96707173Y-48381485D02*
X96754792Y-48571961D01*
X96754792Y-48571961D02*
X96850030Y-48667200D01*
X96850030Y-48667200D02*
X96945268Y-48714819D01*
X96945268Y-48714819D02*
X97135744Y-48714819D01*
X97135744Y-48714819D02*
X97230982Y-48667200D01*
X97230982Y-48667200D02*
X97326220Y-48571961D01*
X97326220Y-48571961D02*
X97373839Y-48381485D01*
X97373839Y-48381485D02*
X97373839Y-48048152D01*
X97373839Y-48048152D02*
X97326220Y-47857676D01*
X97326220Y-47857676D02*
X97230982Y-47762438D01*
X97230982Y-47762438D02*
X97135744Y-47714819D01*
X96278601Y-47714819D02*
X96278601Y-48524342D01*
X96278601Y-48524342D02*
X96230982Y-48619580D01*
X96230982Y-48619580D02*
X96183363Y-48667200D01*
X96183363Y-48667200D02*
X96088125Y-48714819D01*
X96088125Y-48714819D02*
X95897649Y-48714819D01*
X95897649Y-48714819D02*
X95802411Y-48667200D01*
X95802411Y-48667200D02*
X95754792Y-48619580D01*
X95754792Y-48619580D02*
X95707173Y-48524342D01*
X95707173Y-48524342D02*
X95707173Y-47714819D01*
X95373839Y-47714819D02*
X94802411Y-47714819D01*
X95088125Y-48714819D02*
X95088125Y-47714819D01*
X94040506Y-48048152D02*
X94040506Y-48714819D01*
X94278601Y-47667200D02*
X94516696Y-48381485D01*
X94516696Y-48381485D02*
X93897649Y-48381485D01*
X97135744Y-50254819D02*
X96945268Y-50254819D01*
X96945268Y-50254819D02*
X96850030Y-50302438D01*
X96850030Y-50302438D02*
X96754792Y-50397676D01*
X96754792Y-50397676D02*
X96707173Y-50588152D01*
X96707173Y-50588152D02*
X96707173Y-50921485D01*
X96707173Y-50921485D02*
X96754792Y-51111961D01*
X96754792Y-51111961D02*
X96850030Y-51207200D01*
X96850030Y-51207200D02*
X96945268Y-51254819D01*
X96945268Y-51254819D02*
X97135744Y-51254819D01*
X97135744Y-51254819D02*
X97230982Y-51207200D01*
X97230982Y-51207200D02*
X97326220Y-51111961D01*
X97326220Y-51111961D02*
X97373839Y-50921485D01*
X97373839Y-50921485D02*
X97373839Y-50588152D01*
X97373839Y-50588152D02*
X97326220Y-50397676D01*
X97326220Y-50397676D02*
X97230982Y-50302438D01*
X97230982Y-50302438D02*
X97135744Y-50254819D01*
X96278601Y-50254819D02*
X96278601Y-51064342D01*
X96278601Y-51064342D02*
X96230982Y-51159580D01*
X96230982Y-51159580D02*
X96183363Y-51207200D01*
X96183363Y-51207200D02*
X96088125Y-51254819D01*
X96088125Y-51254819D02*
X95897649Y-51254819D01*
X95897649Y-51254819D02*
X95802411Y-51207200D01*
X95802411Y-51207200D02*
X95754792Y-51159580D01*
X95754792Y-51159580D02*
X95707173Y-51064342D01*
X95707173Y-51064342D02*
X95707173Y-50254819D01*
X95373839Y-50254819D02*
X94802411Y-50254819D01*
X95088125Y-51254819D02*
X95088125Y-50254819D01*
X94564315Y-50254819D02*
X93945268Y-50254819D01*
X93945268Y-50254819D02*
X94278601Y-50635771D01*
X94278601Y-50635771D02*
X94135744Y-50635771D01*
X94135744Y-50635771D02*
X94040506Y-50683390D01*
X94040506Y-50683390D02*
X93992887Y-50731009D01*
X93992887Y-50731009D02*
X93945268Y-50826247D01*
X93945268Y-50826247D02*
X93945268Y-51064342D01*
X93945268Y-51064342D02*
X93992887Y-51159580D01*
X93992887Y-51159580D02*
X94040506Y-51207200D01*
X94040506Y-51207200D02*
X94135744Y-51254819D01*
X94135744Y-51254819D02*
X94421458Y-51254819D01*
X94421458Y-51254819D02*
X94516696Y-51207200D01*
X94516696Y-51207200D02*
X94564315Y-51159580D01*
X97326220Y-53794819D02*
X97326220Y-52794819D01*
X97326220Y-52794819D02*
X96754792Y-53794819D01*
X96754792Y-53794819D02*
X96754792Y-52794819D01*
X95707173Y-53699580D02*
X95754792Y-53747200D01*
X95754792Y-53747200D02*
X95897649Y-53794819D01*
X95897649Y-53794819D02*
X95992887Y-53794819D01*
X95992887Y-53794819D02*
X96135744Y-53747200D01*
X96135744Y-53747200D02*
X96230982Y-53651961D01*
X96230982Y-53651961D02*
X96278601Y-53556723D01*
X96278601Y-53556723D02*
X96326220Y-53366247D01*
X96326220Y-53366247D02*
X96326220Y-53223390D01*
X96326220Y-53223390D02*
X96278601Y-53032914D01*
X96278601Y-53032914D02*
X96230982Y-52937676D01*
X96230982Y-52937676D02*
X96135744Y-52842438D01*
X96135744Y-52842438D02*
X95992887Y-52794819D01*
X95992887Y-52794819D02*
X95897649Y-52794819D01*
X95897649Y-52794819D02*
X95754792Y-52842438D01*
X95754792Y-52842438D02*
X95707173Y-52890057D01*
X97326220Y-58874819D02*
X97326220Y-57874819D01*
X97326220Y-57874819D02*
X96754792Y-58874819D01*
X96754792Y-58874819D02*
X96754792Y-57874819D01*
X95707173Y-58779580D02*
X95754792Y-58827200D01*
X95754792Y-58827200D02*
X95897649Y-58874819D01*
X95897649Y-58874819D02*
X95992887Y-58874819D01*
X95992887Y-58874819D02*
X96135744Y-58827200D01*
X96135744Y-58827200D02*
X96230982Y-58731961D01*
X96230982Y-58731961D02*
X96278601Y-58636723D01*
X96278601Y-58636723D02*
X96326220Y-58446247D01*
X96326220Y-58446247D02*
X96326220Y-58303390D01*
X96326220Y-58303390D02*
X96278601Y-58112914D01*
X96278601Y-58112914D02*
X96230982Y-58017676D01*
X96230982Y-58017676D02*
X96135744Y-57922438D01*
X96135744Y-57922438D02*
X95992887Y-57874819D01*
X95992887Y-57874819D02*
X95897649Y-57874819D01*
X95897649Y-57874819D02*
X95754792Y-57922438D01*
X95754792Y-57922438D02*
X95707173Y-57970057D01*
X96850030Y-60414819D02*
X97326220Y-60414819D01*
X97326220Y-60414819D02*
X97373839Y-60891009D01*
X97373839Y-60891009D02*
X97326220Y-60843390D01*
X97326220Y-60843390D02*
X97230982Y-60795771D01*
X97230982Y-60795771D02*
X96992887Y-60795771D01*
X96992887Y-60795771D02*
X96897649Y-60843390D01*
X96897649Y-60843390D02*
X96850030Y-60891009D01*
X96850030Y-60891009D02*
X96802411Y-60986247D01*
X96802411Y-60986247D02*
X96802411Y-61224342D01*
X96802411Y-61224342D02*
X96850030Y-61319580D01*
X96850030Y-61319580D02*
X96897649Y-61367200D01*
X96897649Y-61367200D02*
X96992887Y-61414819D01*
X96992887Y-61414819D02*
X97230982Y-61414819D01*
X97230982Y-61414819D02*
X97326220Y-61367200D01*
X97326220Y-61367200D02*
X97373839Y-61319580D01*
X96516696Y-60414819D02*
X96183363Y-61414819D01*
X96183363Y-61414819D02*
X95850030Y-60414819D01*
X97343220Y-46174819D02*
X97343220Y-45174819D01*
X96676554Y-45174819D02*
X96486078Y-45174819D01*
X96486078Y-45174819D02*
X96390840Y-45222438D01*
X96390840Y-45222438D02*
X96295602Y-45317676D01*
X96295602Y-45317676D02*
X96247983Y-45508152D01*
X96247983Y-45508152D02*
X96247983Y-45841485D01*
X96247983Y-45841485D02*
X96295602Y-46031961D01*
X96295602Y-46031961D02*
X96390840Y-46127200D01*
X96390840Y-46127200D02*
X96486078Y-46174819D01*
X96486078Y-46174819D02*
X96676554Y-46174819D01*
X96676554Y-46174819D02*
X96771792Y-46127200D01*
X96771792Y-46127200D02*
X96867030Y-46031961D01*
X96867030Y-46031961D02*
X96914649Y-45841485D01*
X96914649Y-45841485D02*
X96914649Y-45508152D01*
X96914649Y-45508152D02*
X96867030Y-45317676D01*
X96867030Y-45317676D02*
X96771792Y-45222438D01*
X96771792Y-45222438D02*
X96676554Y-45174819D01*
X95867030Y-45270057D02*
X95819411Y-45222438D01*
X95819411Y-45222438D02*
X95724173Y-45174819D01*
X95724173Y-45174819D02*
X95486078Y-45174819D01*
X95486078Y-45174819D02*
X95390840Y-45222438D01*
X95390840Y-45222438D02*
X95343221Y-45270057D01*
X95343221Y-45270057D02*
X95295602Y-45365295D01*
X95295602Y-45365295D02*
X95295602Y-45460533D01*
X95295602Y-45460533D02*
X95343221Y-45603390D01*
X95343221Y-45603390D02*
X95914649Y-46174819D01*
X95914649Y-46174819D02*
X95295602Y-46174819D01*
X97343220Y-56389819D02*
X97343220Y-55389819D01*
X97343220Y-55389819D02*
X96771792Y-56389819D01*
X96771792Y-56389819D02*
X96771792Y-55389819D01*
X95724173Y-56294580D02*
X95771792Y-56342200D01*
X95771792Y-56342200D02*
X95914649Y-56389819D01*
X95914649Y-56389819D02*
X96009887Y-56389819D01*
X96009887Y-56389819D02*
X96152744Y-56342200D01*
X96152744Y-56342200D02*
X96247982Y-56246961D01*
X96247982Y-56246961D02*
X96295601Y-56151723D01*
X96295601Y-56151723D02*
X96343220Y-55961247D01*
X96343220Y-55961247D02*
X96343220Y-55818390D01*
X96343220Y-55818390D02*
X96295601Y-55627914D01*
X96295601Y-55627914D02*
X96247982Y-55532676D01*
X96247982Y-55532676D02*
X96152744Y-55437438D01*
X96152744Y-55437438D02*
X96009887Y-55389819D01*
X96009887Y-55389819D02*
X95914649Y-55389819D01*
X95914649Y-55389819D02*
X95771792Y-55437438D01*
X95771792Y-55437438D02*
X95724173Y-55485057D01*
X80187778Y-48714819D02*
X80187778Y-47714819D01*
X79521112Y-47714819D02*
X79330636Y-47714819D01*
X79330636Y-47714819D02*
X79235398Y-47762438D01*
X79235398Y-47762438D02*
X79140160Y-47857676D01*
X79140160Y-47857676D02*
X79092541Y-48048152D01*
X79092541Y-48048152D02*
X79092541Y-48381485D01*
X79092541Y-48381485D02*
X79140160Y-48571961D01*
X79140160Y-48571961D02*
X79235398Y-48667200D01*
X79235398Y-48667200D02*
X79330636Y-48714819D01*
X79330636Y-48714819D02*
X79521112Y-48714819D01*
X79521112Y-48714819D02*
X79616350Y-48667200D01*
X79616350Y-48667200D02*
X79711588Y-48571961D01*
X79711588Y-48571961D02*
X79759207Y-48381485D01*
X79759207Y-48381485D02*
X79759207Y-48048152D01*
X79759207Y-48048152D02*
X79711588Y-47857676D01*
X79711588Y-47857676D02*
X79616350Y-47762438D01*
X79616350Y-47762438D02*
X79521112Y-47714819D01*
X78140160Y-48714819D02*
X78711588Y-48714819D01*
X78425874Y-48714819D02*
X78425874Y-47714819D01*
X78425874Y-47714819D02*
X78521112Y-47857676D01*
X78521112Y-47857676D02*
X78616350Y-47952914D01*
X78616350Y-47952914D02*
X78711588Y-48000533D01*
X79092541Y-51159580D02*
X79140160Y-51207200D01*
X79140160Y-51207200D02*
X79283017Y-51254819D01*
X79283017Y-51254819D02*
X79378255Y-51254819D01*
X79378255Y-51254819D02*
X79521112Y-51207200D01*
X79521112Y-51207200D02*
X79616350Y-51111961D01*
X79616350Y-51111961D02*
X79663969Y-51016723D01*
X79663969Y-51016723D02*
X79711588Y-50826247D01*
X79711588Y-50826247D02*
X79711588Y-50683390D01*
X79711588Y-50683390D02*
X79663969Y-50492914D01*
X79663969Y-50492914D02*
X79616350Y-50397676D01*
X79616350Y-50397676D02*
X79521112Y-50302438D01*
X79521112Y-50302438D02*
X79378255Y-50254819D01*
X79378255Y-50254819D02*
X79283017Y-50254819D01*
X79283017Y-50254819D02*
X79140160Y-50302438D01*
X79140160Y-50302438D02*
X79092541Y-50350057D01*
X78711588Y-51207200D02*
X78568731Y-51254819D01*
X78568731Y-51254819D02*
X78330636Y-51254819D01*
X78330636Y-51254819D02*
X78235398Y-51207200D01*
X78235398Y-51207200D02*
X78187779Y-51159580D01*
X78187779Y-51159580D02*
X78140160Y-51064342D01*
X78140160Y-51064342D02*
X78140160Y-50969104D01*
X78140160Y-50969104D02*
X78187779Y-50873866D01*
X78187779Y-50873866D02*
X78235398Y-50826247D01*
X78235398Y-50826247D02*
X78330636Y-50778628D01*
X78330636Y-50778628D02*
X78521112Y-50731009D01*
X78521112Y-50731009D02*
X78616350Y-50683390D01*
X78616350Y-50683390D02*
X78663969Y-50635771D01*
X78663969Y-50635771D02*
X78711588Y-50540533D01*
X78711588Y-50540533D02*
X78711588Y-50445295D01*
X78711588Y-50445295D02*
X78663969Y-50350057D01*
X78663969Y-50350057D02*
X78616350Y-50302438D01*
X78616350Y-50302438D02*
X78521112Y-50254819D01*
X78521112Y-50254819D02*
X78283017Y-50254819D01*
X78283017Y-50254819D02*
X78140160Y-50302438D01*
X81521112Y-53747200D02*
X81378255Y-53794819D01*
X81378255Y-53794819D02*
X81140160Y-53794819D01*
X81140160Y-53794819D02*
X81044922Y-53747200D01*
X81044922Y-53747200D02*
X80997303Y-53699580D01*
X80997303Y-53699580D02*
X80949684Y-53604342D01*
X80949684Y-53604342D02*
X80949684Y-53509104D01*
X80949684Y-53509104D02*
X80997303Y-53413866D01*
X80997303Y-53413866D02*
X81044922Y-53366247D01*
X81044922Y-53366247D02*
X81140160Y-53318628D01*
X81140160Y-53318628D02*
X81330636Y-53271009D01*
X81330636Y-53271009D02*
X81425874Y-53223390D01*
X81425874Y-53223390D02*
X81473493Y-53175771D01*
X81473493Y-53175771D02*
X81521112Y-53080533D01*
X81521112Y-53080533D02*
X81521112Y-52985295D01*
X81521112Y-52985295D02*
X81473493Y-52890057D01*
X81473493Y-52890057D02*
X81425874Y-52842438D01*
X81425874Y-52842438D02*
X81330636Y-52794819D01*
X81330636Y-52794819D02*
X81092541Y-52794819D01*
X81092541Y-52794819D02*
X80949684Y-52842438D01*
X79949684Y-53699580D02*
X79997303Y-53747200D01*
X79997303Y-53747200D02*
X80140160Y-53794819D01*
X80140160Y-53794819D02*
X80235398Y-53794819D01*
X80235398Y-53794819D02*
X80378255Y-53747200D01*
X80378255Y-53747200D02*
X80473493Y-53651961D01*
X80473493Y-53651961D02*
X80521112Y-53556723D01*
X80521112Y-53556723D02*
X80568731Y-53366247D01*
X80568731Y-53366247D02*
X80568731Y-53223390D01*
X80568731Y-53223390D02*
X80521112Y-53032914D01*
X80521112Y-53032914D02*
X80473493Y-52937676D01*
X80473493Y-52937676D02*
X80378255Y-52842438D01*
X80378255Y-52842438D02*
X80235398Y-52794819D01*
X80235398Y-52794819D02*
X80140160Y-52794819D01*
X80140160Y-52794819D02*
X79997303Y-52842438D01*
X79997303Y-52842438D02*
X79949684Y-52890057D01*
X79044922Y-53794819D02*
X79521112Y-53794819D01*
X79521112Y-53794819D02*
X79521112Y-52794819D01*
X78711588Y-53794819D02*
X78711588Y-52794819D01*
X78140160Y-53794819D02*
X78568731Y-53223390D01*
X78140160Y-52794819D02*
X78711588Y-53366247D01*
X80759207Y-56287200D02*
X80616350Y-56334819D01*
X80616350Y-56334819D02*
X80378255Y-56334819D01*
X80378255Y-56334819D02*
X80283017Y-56287200D01*
X80283017Y-56287200D02*
X80235398Y-56239580D01*
X80235398Y-56239580D02*
X80187779Y-56144342D01*
X80187779Y-56144342D02*
X80187779Y-56049104D01*
X80187779Y-56049104D02*
X80235398Y-55953866D01*
X80235398Y-55953866D02*
X80283017Y-55906247D01*
X80283017Y-55906247D02*
X80378255Y-55858628D01*
X80378255Y-55858628D02*
X80568731Y-55811009D01*
X80568731Y-55811009D02*
X80663969Y-55763390D01*
X80663969Y-55763390D02*
X80711588Y-55715771D01*
X80711588Y-55715771D02*
X80759207Y-55620533D01*
X80759207Y-55620533D02*
X80759207Y-55525295D01*
X80759207Y-55525295D02*
X80711588Y-55430057D01*
X80711588Y-55430057D02*
X80663969Y-55382438D01*
X80663969Y-55382438D02*
X80568731Y-55334819D01*
X80568731Y-55334819D02*
X80330636Y-55334819D01*
X80330636Y-55334819D02*
X80187779Y-55382438D01*
X79759207Y-56334819D02*
X79759207Y-55334819D01*
X79759207Y-55334819D02*
X79521112Y-55334819D01*
X79521112Y-55334819D02*
X79378255Y-55382438D01*
X79378255Y-55382438D02*
X79283017Y-55477676D01*
X79283017Y-55477676D02*
X79235398Y-55572914D01*
X79235398Y-55572914D02*
X79187779Y-55763390D01*
X79187779Y-55763390D02*
X79187779Y-55906247D01*
X79187779Y-55906247D02*
X79235398Y-56096723D01*
X79235398Y-56096723D02*
X79283017Y-56191961D01*
X79283017Y-56191961D02*
X79378255Y-56287200D01*
X79378255Y-56287200D02*
X79521112Y-56334819D01*
X79521112Y-56334819D02*
X79759207Y-56334819D01*
X78568731Y-55334819D02*
X78378255Y-55334819D01*
X78378255Y-55334819D02*
X78283017Y-55382438D01*
X78283017Y-55382438D02*
X78187779Y-55477676D01*
X78187779Y-55477676D02*
X78140160Y-55668152D01*
X78140160Y-55668152D02*
X78140160Y-56001485D01*
X78140160Y-56001485D02*
X78187779Y-56191961D01*
X78187779Y-56191961D02*
X78283017Y-56287200D01*
X78283017Y-56287200D02*
X78378255Y-56334819D01*
X78378255Y-56334819D02*
X78568731Y-56334819D01*
X78568731Y-56334819D02*
X78663969Y-56287200D01*
X78663969Y-56287200D02*
X78759207Y-56191961D01*
X78759207Y-56191961D02*
X78806826Y-56001485D01*
X78806826Y-56001485D02*
X78806826Y-55668152D01*
X78806826Y-55668152D02*
X78759207Y-55477676D01*
X78759207Y-55477676D02*
X78663969Y-55382438D01*
X78663969Y-55382438D02*
X78568731Y-55334819D01*
X81695731Y-45301819D02*
X81362398Y-46301819D01*
X81362398Y-46301819D02*
X81029065Y-45301819D01*
X80505255Y-45301819D02*
X80314779Y-45301819D01*
X80314779Y-45301819D02*
X80219541Y-45349438D01*
X80219541Y-45349438D02*
X80124303Y-45444676D01*
X80124303Y-45444676D02*
X80076684Y-45635152D01*
X80076684Y-45635152D02*
X80076684Y-45968485D01*
X80076684Y-45968485D02*
X80124303Y-46158961D01*
X80124303Y-46158961D02*
X80219541Y-46254200D01*
X80219541Y-46254200D02*
X80314779Y-46301819D01*
X80314779Y-46301819D02*
X80505255Y-46301819D01*
X80505255Y-46301819D02*
X80600493Y-46254200D01*
X80600493Y-46254200D02*
X80695731Y-46158961D01*
X80695731Y-46158961D02*
X80743350Y-45968485D01*
X80743350Y-45968485D02*
X80743350Y-45635152D01*
X80743350Y-45635152D02*
X80695731Y-45444676D01*
X80695731Y-45444676D02*
X80600493Y-45349438D01*
X80600493Y-45349438D02*
X80505255Y-45301819D01*
X79648112Y-45301819D02*
X79648112Y-46111342D01*
X79648112Y-46111342D02*
X79600493Y-46206580D01*
X79600493Y-46206580D02*
X79552874Y-46254200D01*
X79552874Y-46254200D02*
X79457636Y-46301819D01*
X79457636Y-46301819D02*
X79267160Y-46301819D01*
X79267160Y-46301819D02*
X79171922Y-46254200D01*
X79171922Y-46254200D02*
X79124303Y-46206580D01*
X79124303Y-46206580D02*
X79076684Y-46111342D01*
X79076684Y-46111342D02*
X79076684Y-45301819D01*
X78743350Y-45301819D02*
X78171922Y-45301819D01*
X78457636Y-46301819D02*
X78457636Y-45301819D01*
X85426683Y-64208866D02*
X84664779Y-64208866D01*
X85045731Y-64589819D02*
X85045731Y-63827914D01*
X87966683Y-64081866D02*
X87204779Y-64081866D01*
X81630477Y-58459525D02*
X81159072Y-57516716D01*
X81159072Y-57516716D02*
X82101881Y-57988120D01*
X81630477Y-57045311D02*
X82337584Y-57752418D01*
X81967194Y-56708594D02*
X82674301Y-57415701D01*
X82674301Y-57415701D02*
X82371255Y-56304533D01*
X82371255Y-56304533D02*
X83078362Y-57011639D01*
X82136637Y-61509364D02*
X81665232Y-60566555D01*
X81665232Y-60566555D02*
X82608041Y-61037960D01*
X82136637Y-60095151D02*
X82843744Y-60802258D01*
X82843744Y-60802258D02*
X83113118Y-60532884D01*
X83113118Y-60532884D02*
X83146790Y-60431868D01*
X83146790Y-60431868D02*
X83146790Y-60364525D01*
X83146790Y-60364525D02*
X83113118Y-60263509D01*
X83113118Y-60263509D02*
X83012103Y-60162494D01*
X83012103Y-60162494D02*
X82911087Y-60128822D01*
X82911087Y-60128822D02*
X82843744Y-60128822D01*
X82843744Y-60128822D02*
X82742729Y-60162494D01*
X82742729Y-60162494D02*
X82473355Y-60431868D01*
X83483507Y-60162494D02*
X82944759Y-59287029D01*
X82944759Y-59287029D02*
X83584522Y-59657418D01*
X83584522Y-59657418D02*
X83214133Y-59017655D01*
X83214133Y-59017655D02*
X84089599Y-59556403D01*
X84055927Y-58175861D02*
X84156942Y-58748281D01*
X83651866Y-58579922D02*
X84358972Y-59287029D01*
X84358972Y-59287029D02*
X84628347Y-59017655D01*
X84628347Y-59017655D02*
X84662018Y-58916640D01*
X84662018Y-58916640D02*
X84662018Y-58849296D01*
X84662018Y-58849296D02*
X84628347Y-58748281D01*
X84628347Y-58748281D02*
X84527331Y-58647266D01*
X84527331Y-58647266D02*
X84426316Y-58613594D01*
X84426316Y-58613594D02*
X84358972Y-58613594D01*
X84358972Y-58613594D02*
X84257957Y-58647266D01*
X84257957Y-58647266D02*
X83988583Y-58916640D01*
X77951800Y-59105778D02*
X77904180Y-58962921D01*
X77904180Y-58962921D02*
X77904180Y-58724826D01*
X77904180Y-58724826D02*
X77951800Y-58629588D01*
X77951800Y-58629588D02*
X77999419Y-58581969D01*
X77999419Y-58581969D02*
X78094657Y-58534350D01*
X78094657Y-58534350D02*
X78189895Y-58534350D01*
X78189895Y-58534350D02*
X78285133Y-58581969D01*
X78285133Y-58581969D02*
X78332752Y-58629588D01*
X78332752Y-58629588D02*
X78380371Y-58724826D01*
X78380371Y-58724826D02*
X78427990Y-58915302D01*
X78427990Y-58915302D02*
X78475609Y-59010540D01*
X78475609Y-59010540D02*
X78523228Y-59058159D01*
X78523228Y-59058159D02*
X78618466Y-59105778D01*
X78618466Y-59105778D02*
X78713704Y-59105778D01*
X78713704Y-59105778D02*
X78808942Y-59058159D01*
X78808942Y-59058159D02*
X78856561Y-59010540D01*
X78856561Y-59010540D02*
X78904180Y-58915302D01*
X78904180Y-58915302D02*
X78904180Y-58677207D01*
X78904180Y-58677207D02*
X78856561Y-58534350D01*
X77904180Y-58105778D02*
X78904180Y-58105778D01*
X78904180Y-58105778D02*
X78904180Y-57867683D01*
X78904180Y-57867683D02*
X78856561Y-57724826D01*
X78856561Y-57724826D02*
X78761323Y-57629588D01*
X78761323Y-57629588D02*
X78666085Y-57581969D01*
X78666085Y-57581969D02*
X78475609Y-57534350D01*
X78475609Y-57534350D02*
X78332752Y-57534350D01*
X78332752Y-57534350D02*
X78142276Y-57581969D01*
X78142276Y-57581969D02*
X78047038Y-57629588D01*
X78047038Y-57629588D02*
X77951800Y-57724826D01*
X77951800Y-57724826D02*
X77904180Y-57867683D01*
X77904180Y-57867683D02*
X77904180Y-58105778D01*
X77904180Y-57105778D02*
X78904180Y-57105778D01*
X78904180Y-62280731D02*
X78904180Y-61661684D01*
X78904180Y-61661684D02*
X78523228Y-61995017D01*
X78523228Y-61995017D02*
X78523228Y-61852160D01*
X78523228Y-61852160D02*
X78475609Y-61756922D01*
X78475609Y-61756922D02*
X78427990Y-61709303D01*
X78427990Y-61709303D02*
X78332752Y-61661684D01*
X78332752Y-61661684D02*
X78094657Y-61661684D01*
X78094657Y-61661684D02*
X77999419Y-61709303D01*
X77999419Y-61709303D02*
X77951800Y-61756922D01*
X77951800Y-61756922D02*
X77904180Y-61852160D01*
X77904180Y-61852160D02*
X77904180Y-62137874D01*
X77904180Y-62137874D02*
X77951800Y-62233112D01*
X77951800Y-62233112D02*
X77999419Y-62280731D01*
X78904180Y-61375969D02*
X77904180Y-61042636D01*
X77904180Y-61042636D02*
X78904180Y-60709303D01*
X78904180Y-60471207D02*
X78904180Y-59852160D01*
X78904180Y-59852160D02*
X78523228Y-60185493D01*
X78523228Y-60185493D02*
X78523228Y-60042636D01*
X78523228Y-60042636D02*
X78475609Y-59947398D01*
X78475609Y-59947398D02*
X78427990Y-59899779D01*
X78427990Y-59899779D02*
X78332752Y-59852160D01*
X78332752Y-59852160D02*
X78094657Y-59852160D01*
X78094657Y-59852160D02*
X77999419Y-59899779D01*
X77999419Y-59899779D02*
X77951800Y-59947398D01*
X77951800Y-59947398D02*
X77904180Y-60042636D01*
X77904180Y-60042636D02*
X77904180Y-60328350D01*
X77904180Y-60328350D02*
X77951800Y-60423588D01*
X77951800Y-60423588D02*
X77999419Y-60471207D01*
X78856561Y-64995398D02*
X78904180Y-65090636D01*
X78904180Y-65090636D02*
X78904180Y-65233493D01*
X78904180Y-65233493D02*
X78856561Y-65376350D01*
X78856561Y-65376350D02*
X78761323Y-65471588D01*
X78761323Y-65471588D02*
X78666085Y-65519207D01*
X78666085Y-65519207D02*
X78475609Y-65566826D01*
X78475609Y-65566826D02*
X78332752Y-65566826D01*
X78332752Y-65566826D02*
X78142276Y-65519207D01*
X78142276Y-65519207D02*
X78047038Y-65471588D01*
X78047038Y-65471588D02*
X77951800Y-65376350D01*
X77951800Y-65376350D02*
X77904180Y-65233493D01*
X77904180Y-65233493D02*
X77904180Y-65138255D01*
X77904180Y-65138255D02*
X77951800Y-64995398D01*
X77951800Y-64995398D02*
X77999419Y-64947779D01*
X77999419Y-64947779D02*
X78332752Y-64947779D01*
X78332752Y-64947779D02*
X78332752Y-65138255D01*
X77904180Y-64519207D02*
X78904180Y-64519207D01*
X78904180Y-64519207D02*
X77904180Y-63947779D01*
X77904180Y-63947779D02*
X78904180Y-63947779D01*
X77904180Y-63471588D02*
X78904180Y-63471588D01*
X78904180Y-63471588D02*
X78904180Y-63233493D01*
X78904180Y-63233493D02*
X78856561Y-63090636D01*
X78856561Y-63090636D02*
X78761323Y-62995398D01*
X78761323Y-62995398D02*
X78666085Y-62947779D01*
X78666085Y-62947779D02*
X78475609Y-62900160D01*
X78475609Y-62900160D02*
X78332752Y-62900160D01*
X78332752Y-62900160D02*
X78142276Y-62947779D01*
X78142276Y-62947779D02*
X78047038Y-62995398D01*
X78047038Y-62995398D02*
X77951800Y-63090636D01*
X77951800Y-63090636D02*
X77904180Y-63233493D01*
X77904180Y-63233493D02*
X77904180Y-63471588D01*
X82841180Y-64185922D02*
X82841180Y-64662112D01*
X82841180Y-64662112D02*
X82364990Y-64709731D01*
X82364990Y-64709731D02*
X82412609Y-64662112D01*
X82412609Y-64662112D02*
X82460228Y-64566874D01*
X82460228Y-64566874D02*
X82460228Y-64328779D01*
X82460228Y-64328779D02*
X82412609Y-64233541D01*
X82412609Y-64233541D02*
X82364990Y-64185922D01*
X82364990Y-64185922D02*
X82269752Y-64138303D01*
X82269752Y-64138303D02*
X82031657Y-64138303D01*
X82031657Y-64138303D02*
X81936419Y-64185922D01*
X81936419Y-64185922D02*
X81888800Y-64233541D01*
X81888800Y-64233541D02*
X81841180Y-64328779D01*
X81841180Y-64328779D02*
X81841180Y-64566874D01*
X81841180Y-64566874D02*
X81888800Y-64662112D01*
X81888800Y-64662112D02*
X81936419Y-64709731D01*
X82841180Y-63852588D02*
X81841180Y-63519255D01*
X81841180Y-63519255D02*
X82841180Y-63185922D01*
X76533333Y-42794819D02*
X76533333Y-43509104D01*
X76533333Y-43509104D02*
X76580952Y-43651961D01*
X76580952Y-43651961D02*
X76676190Y-43747200D01*
X76676190Y-43747200D02*
X76819047Y-43794819D01*
X76819047Y-43794819D02*
X76914285Y-43794819D01*
X76104761Y-42890057D02*
X76057142Y-42842438D01*
X76057142Y-42842438D02*
X75961904Y-42794819D01*
X75961904Y-42794819D02*
X75723809Y-42794819D01*
X75723809Y-42794819D02*
X75628571Y-42842438D01*
X75628571Y-42842438D02*
X75580952Y-42890057D01*
X75580952Y-42890057D02*
X75533333Y-42985295D01*
X75533333Y-42985295D02*
X75533333Y-43080533D01*
X75533333Y-43080533D02*
X75580952Y-43223390D01*
X75580952Y-43223390D02*
X76152380Y-43794819D01*
X76152380Y-43794819D02*
X75533333Y-43794819D01*
X99393333Y-42794819D02*
X99393333Y-43509104D01*
X99393333Y-43509104D02*
X99440952Y-43651961D01*
X99440952Y-43651961D02*
X99536190Y-43747200D01*
X99536190Y-43747200D02*
X99679047Y-43794819D01*
X99679047Y-43794819D02*
X99774285Y-43794819D01*
X99012380Y-42794819D02*
X98393333Y-42794819D01*
X98393333Y-42794819D02*
X98726666Y-43175771D01*
X98726666Y-43175771D02*
X98583809Y-43175771D01*
X98583809Y-43175771D02*
X98488571Y-43223390D01*
X98488571Y-43223390D02*
X98440952Y-43271009D01*
X98440952Y-43271009D02*
X98393333Y-43366247D01*
X98393333Y-43366247D02*
X98393333Y-43604342D01*
X98393333Y-43604342D02*
X98440952Y-43699580D01*
X98440952Y-43699580D02*
X98488571Y-43747200D01*
X98488571Y-43747200D02*
X98583809Y-43794819D01*
X98583809Y-43794819D02*
X98869523Y-43794819D01*
X98869523Y-43794819D02*
X98964761Y-43747200D01*
X98964761Y-43747200D02*
X99012380Y-43699580D01*
%TO.C,J2*%
D11*
X74820000Y-46990000D02*
X74820000Y-64880000D01*
X77580000Y-44340000D02*
X76200000Y-44340000D01*
X77580000Y-45720000D02*
X77580000Y-44340000D01*
X77580000Y-46990000D02*
X74820000Y-46990000D01*
X77580000Y-46990000D02*
X77580000Y-64880000D01*
X77580000Y-64880000D02*
X74820000Y-64880000D01*
%TO.C,J3*%
X97680000Y-46990000D02*
X97680000Y-64880000D01*
X100440000Y-44340000D02*
X99060000Y-44340000D01*
X100440000Y-45720000D02*
X100440000Y-44340000D01*
X100440000Y-46990000D02*
X97680000Y-46990000D01*
X100440000Y-46990000D02*
X100440000Y-64880000D01*
X100440000Y-64880000D02*
X97680000Y-64880000D01*
%TD*%
M02*
